<svg version="1.1" id="Layer_1" xmlns="http://www.w3.org/2000/svg" xmlns:xlink="http://www.w3.org/1999/xlink" x="0px" y="0px"
	 width="100%" viewBox="0 0 64 64" enable-background="new 0 0 64 64" xml:space="preserve">
<path fill="#FCFCFD" opacity="1.000000" stroke="none" 
	d="
M65.000000,44.000000 
	C65.000000,50.922245 65.000000,57.844494 65.000000,65.000000 
	C58.981579,65.000000 52.960163,65.000000 46.682060,64.734283 
	C47.291164,63.341152 48.156960,62.213734 49.209663,60.806320 
	C53.336441,56.190617 57.276302,51.854897 61.474628,47.286186 
	C61.827251,46.369564 61.921406,45.685928 62.228531,44.913429 
	C62.775776,44.651127 62.875683,44.388527 62.893093,43.815384 
	C63.047516,43.415462 63.050079,43.236927 63.252243,42.958618 
	C63.451839,42.858845 63.862144,42.683277 63.967590,42.965996 
	C64.382027,43.499142 64.691017,43.749569 65.000000,44.000000 
z"/>
<path fill="#FCFDFD" opacity="1.000000" stroke="none" 
	d="
M1.000000,21.000000 
	C1.000000,14.407272 1.000000,7.814544 1.000000,1.000000 
	C7.352261,1.000000 13.707088,1.000000 20.322186,1.279574 
	C18.332743,2.571103 15.824022,3.233003 13.886367,4.666704 
	C9.640833,7.808040 4.239145,10.328300 4.931074,17.430454 
	C4.464055,18.944515 4.123601,20.155369 3.531212,21.489199 
	C3.131356,21.726416 2.983437,21.840658 2.603896,21.838036 
	C1.914849,21.480780 1.457425,21.240391 1.000000,21.000000 
z"/>
<path fill="#FCFDFD" opacity="1.000000" stroke="none" 
	d="
M20.000000,65.000000 
	C13.738733,65.000000 7.477466,65.000000 1.000000,65.000000 
	C1.000000,58.647655 1.000000,52.292870 1.242508,45.377090 
	C1.935032,44.558556 2.385047,44.301018 3.057578,44.215981 
	C3.448584,44.471180 3.617075,44.553883 3.779195,44.965439 
	C4.201860,46.491077 4.630897,47.687866 5.038524,49.290123 
	C5.917458,51.870182 6.249300,54.684086 7.831921,56.091415 
	C11.571498,59.416809 15.906047,62.073124 20.000000,65.000000 
z"/>
<path fill="#FCFBFD" opacity="1.000000" stroke="none" 
	d="
M46.000000,1.000000 
	C52.263134,1.000000 58.526264,1.000000 65.000000,1.000000 
	C65.000000,7.685926 65.000000,14.374051 64.692963,21.530018 
	C63.976799,22.006332 63.567665,22.014807 62.973961,21.753738 
	C62.492886,20.701832 62.196381,19.919466 61.931496,18.727329 
	C62.492210,12.104012 57.844772,9.106467 53.933533,5.751642 
	C53.589024,5.456145 51.982407,6.632087 50.695908,7.026680 
	C49.986355,6.601699 49.542889,6.274636 49.049870,5.738372 
	C49.000320,5.529172 48.958130,5.101271 48.971439,4.739658 
	C47.989834,3.252030 46.994919,2.126015 46.000000,1.000000 
z"/>
<path fill="#FEF2E4" opacity="1.000000" stroke="none" 
	d="
M5.057640,17.127249 
	C4.239145,10.328300 9.640833,7.808040 13.886367,4.666704 
	C15.824022,3.233003 18.332743,2.571103 20.791227,1.279574 
	C22.714357,1.000000 24.428717,1.000000 26.633404,1.228153 
	C27.123734,1.456306 27.028198,1.919338 26.683075,1.905861 
	C25.556997,2.261358 24.776047,2.630332 23.641172,3.099368 
	C15.697147,5.860984 9.864959,10.823409 5.057640,17.127249 
z"/>
<path fill="#FDF4E5" opacity="1.000000" stroke="none" 
	d="
M20.437500,65.000000 
	C15.906047,62.073124 11.571498,59.416809 7.831921,56.091415 
	C6.249300,54.684086 5.917458,51.870182 5.353712,49.427170 
	C10.215831,54.080315 13.377820,60.648220 21.319412,61.996582 
	C23.405104,62.789265 25.167608,63.420761 27.038712,64.282471 
	C27.098206,64.675133 27.049103,64.837570 27.000000,65.000000 
	C24.958334,65.000000 22.916666,65.000000 20.437500,65.000000 
z"/>
<path fill="#FFF2EB" opacity="1.000000" stroke="none" 
	d="
M49.022751,61.086311 
	C48.156960,62.213734 47.291164,63.341152 46.212685,64.734283 
	C43.958332,65.000000 41.916668,65.000000 39.386856,64.759354 
	C38.898712,64.518715 39.099052,64.069534 39.454628,64.098473 
	C40.672726,63.804035 41.535252,63.480659 42.747917,63.162285 
	C45.072956,62.473629 47.047855,61.779972 49.022751,61.086311 
z"/>
<path fill="#FFF0E9" opacity="1.000000" stroke="none" 
	d="
M45.562500,1.000000 
	C46.994919,2.126015 47.989834,3.252030 48.720688,4.700131 
	C48.289940,5.051392 48.123245,5.080566 47.950531,4.974836 
	C47.944508,4.839931 48.013260,4.578750 47.854485,4.482159 
	C47.486725,4.252600 47.277527,4.119967 46.740601,3.991639 
	C45.787075,3.829774 45.161060,3.663936 44.472275,3.486481 
	C44.409496,3.474862 44.283005,3.457430 44.064644,3.249593 
	C43.257736,2.952956 42.669193,2.864156 42.051468,2.810290 
	C42.022285,2.845223 42.112774,2.855202 41.915886,2.579293 
	C40.822681,2.161717 39.926365,2.020051 38.992432,1.659818 
	C38.954823,1.441251 39.000000,1.000000 39.000000,1.000000 
	C41.041668,1.000000 43.083332,1.000000 45.562500,1.000000 
z"/>
<path fill="#FF1A27" opacity="1.000000" stroke="none" 
	d="
M39.099052,64.069534 
	C39.099052,64.069534 38.898712,64.518715 38.949356,64.759354 
	C35.307091,65.000000 31.614182,65.000000 27.460636,65.000000 
	C27.049103,64.837570 27.098206,64.675133 27.502514,64.236382 
	C31.604830,63.996563 35.351940,64.033051 39.099052,64.069534 
z"/>
<path fill="#FF221F" opacity="1.000000" stroke="none" 
	d="
M65.000000,27.000000 
	C65.000000,30.692909 65.000000,34.385818 64.800110,38.618107 
	C64.600227,39.157486 64.171898,39.191494 64.073715,39.072281 
	C63.975533,38.953072 63.781773,38.713169 63.841019,38.281357 
	C63.975136,34.210415 64.050003,30.571280 64.344597,26.937008 
	C64.564316,26.941872 65.000000,27.000000 65.000000,27.000000 
z"/>
<path fill="#FF222C" opacity="1.000000" stroke="none" 
	d="
M38.539364,1.000000 
	C39.000000,1.000000 38.954823,1.441251 38.538349,1.722910 
	C34.423985,1.976159 30.726091,1.947748 27.028198,1.919338 
	C27.028198,1.919338 27.123734,1.456306 27.061867,1.228153 
	C30.692909,1.000000 34.385818,1.000000 38.539364,1.000000 
z"/>
<path fill="#FF3F45" opacity="1.000000" stroke="none" 
	d="
M1.000000,39.000000 
	C1.000000,35.307091 1.000000,31.614182 1.245400,27.544798 
	C1.650390,27.101664 1.809981,27.035002 2.026704,27.428448 
	C2.045699,31.603405 2.007560,35.318256 1.729830,38.943913 
	C1.326826,38.903141 1.163413,38.951569 1.000000,39.000000 
z"/>
<path fill="#FFECDE" opacity="1.000000" stroke="none" 
	d="
M65.000000,26.583336 
	C65.000000,27.000000 64.564316,26.941872 64.333832,26.930492 
	C64.103348,26.919113 64.110550,26.898708 64.159851,26.558510 
	C63.890842,25.406584 63.572525,24.594854 63.189449,23.803898 
	C63.124691,23.824673 63.256607,23.857807 63.254570,23.527107 
	C63.070488,22.798702 62.888439,22.400995 62.822273,21.943827 
	C62.938156,21.884365 63.158531,22.023281 63.158531,22.023281 
	C63.567665,22.014807 63.976799,22.006332 64.692963,21.998928 
	C65.000000,23.388891 65.000000,24.777781 65.000000,26.583336 
z"/>
<path fill="#FFF7E6" opacity="1.000000" stroke="none" 
	d="
M1.000000,21.375000 
	C1.457425,21.240391 1.914849,21.480780 2.629015,22.148336 
	C2.579875,23.324215 2.273993,24.072926 1.878789,24.615358 
	C1.568815,24.190714 1.305660,24.054356 1.000000,24.000000 
	C1.000000,23.250000 1.000000,22.500000 1.000000,21.375000 
z"/>
<path fill="#FFF7E6" opacity="1.000000" stroke="none" 
	d="
M2.835062,44.043480 
	C2.385047,44.301018 1.935032,44.558556 1.242508,44.908047 
	C1.000000,44.250000 1.000000,43.500000 1.290980,42.342072 
	C1.772243,41.890507 1.962526,41.846863 2.161533,41.830223 
	C2.170256,41.857231 2.115158,41.873638 2.370620,42.178200 
	C2.695742,43.003002 2.765402,43.523239 2.835062,44.043480 
z"/>
<path fill="#FFECDE" opacity="1.000000" stroke="none" 
	d="
M64.171898,39.191494 
	C64.171898,39.191494 64.600227,39.157486 64.800110,39.078743 
	C65.000000,40.388889 65.000000,41.777779 65.000000,43.583332 
	C64.691017,43.749569 64.382027,43.499142 63.972797,42.614502 
	C63.972340,41.050694 64.072121,40.121094 64.171898,39.191494 
z"/>
<path fill="#FFDFC2" opacity="1.000000" stroke="none" 
	d="
M2.152810,41.803215 
	C1.962526,41.846863 1.772243,41.890507 1.290980,41.967072 
	C1.000000,41.250000 1.000000,40.500000 1.000000,39.375000 
	C1.163413,38.951569 1.326826,38.903141 1.738294,39.334587 
	C2.001734,40.334476 2.017119,40.854492 2.140252,41.459888 
	C2.247999,41.545269 2.152810,41.803215 2.152810,41.803215 
z"/>
<path fill="#FFDFC2" opacity="1.000000" stroke="none" 
	d="
M1.000000,24.375000 
	C1.305660,24.054356 1.568815,24.190714 1.900688,24.973064 
	C1.997797,26.014147 1.983685,26.491243 1.969572,26.968340 
	C1.809981,27.035002 1.650390,27.101664 1.245400,27.084162 
	C1.000000,26.250000 1.000000,25.500000 1.000000,24.375000 
z"/>
<path fill="#F90303" opacity="1.000000" stroke="none" 
	d="
M49.209663,60.806320 
	C47.047855,61.779972 45.072956,62.473629 42.353485,62.997017 
	C34.939049,62.062035 28.270140,61.288246 21.593399,60.589245 
	C21.439514,60.573135 21.197260,61.401138 20.996225,61.835403 
	C13.377820,60.648220 10.215831,54.080315 5.375121,49.021702 
	C4.630897,47.687866 4.201860,46.491077 3.845555,44.470116 
	C3.873240,36.219368 3.828194,28.792795 3.783148,21.366222 
	C4.123601,20.155369 4.464055,18.944515 4.931074,17.430454 
	C9.864959,10.823409 15.697147,5.860984 24.044546,3.113036 
	C30.572153,2.969496 36.342464,2.912349 42.112774,2.855202 
	C42.112774,2.855202 42.022285,2.845223 42.199123,3.125998 
	C43.011642,3.423659 43.647324,3.440544 44.283005,3.457430 
	C44.283005,3.457430 44.409496,3.474862 44.332146,3.826797 
	C45.286091,4.396352 46.317387,4.613971 47.512802,4.763052 
	C47.676918,4.694513 48.013260,4.578750 48.013260,4.578750 
	C48.013260,4.578750 47.944508,4.839931 48.079636,5.187849 
	C48.454891,5.790657 48.749775,5.927925 49.099419,5.947572 
	C49.542889,6.274636 49.986355,6.601699 50.825184,7.348190 
	C54.780319,11.557445 58.340096,15.347272 61.899872,19.137100 
	C62.196381,19.919466 62.492886,20.701832 62.973961,21.753738 
	C63.158531,22.023281 62.938156,21.884365 62.629829,22.132610 
	C62.633209,22.873171 62.944908,23.365488 63.256607,23.857807 
	C63.256607,23.857807 63.124691,23.824673 63.082733,24.199787 
	C63.023914,25.387859 63.007061,26.200819 62.988060,27.345016 
	C62.985657,28.117908 62.985397,28.559563 62.581383,29.015919 
	C61.459713,30.900568 60.438496,32.731964 60.193192,34.661980 
	C60.110558,35.312130 61.998066,36.212681 62.986092,37.329819 
	C62.987305,38.102058 62.987572,38.543262 62.986526,39.360115 
	C62.921501,40.483204 62.857792,41.230652 62.605820,42.141739 
	C62.525448,42.882511 62.633339,43.459637 62.741234,44.036766 
	C62.875683,44.388527 62.775776,44.651127 61.943474,45.131096 
	C61.369015,46.131477 61.292587,46.825329 61.216164,47.519176 
	C57.276302,51.854897 53.336441,56.190617 49.209663,60.806320 
M47.980503,40.335255 
	C48.279579,36.084648 44.672115,36.048431 42.054218,34.162041 
	C43.322136,32.632187 44.431114,30.923744 45.898396,29.617903 
	C47.712627,28.003288 50.034470,26.786028 47.748554,23.236929 
	C47.319195,22.593645 46.889835,21.950363 46.120903,20.862190 
	C45.417030,20.291651 44.713158,19.721111 43.516994,18.452038 
	C43.009682,18.646255 42.502373,18.840475 41.398129,19.102127 
	C40.933422,19.736067 40.468716,20.370007 39.346493,21.232672 
	C37.156811,22.849840 34.967125,24.467007 32.883034,26.006191 
	C30.476583,23.972227 28.235548,22.078068 25.448357,19.940620 
	C24.979156,19.590565 24.509958,19.240509 23.821514,18.334362 
	C23.200018,18.520920 22.578520,18.707478 21.372747,18.987129 
	C19.960863,21.117142 16.282848,23.014177 20.965807,26.318010 
	C21.961895,27.578491 22.957983,28.838972 23.730455,30.636364 
	C24.443457,31.761057 25.156456,32.885750 25.620161,34.634796 
	C23.461470,37.098785 21.302776,39.562771 18.689726,42.325974 
	C19.792635,44.161465 20.895544,45.996952 22.708569,47.968082 
	C26.176077,45.370613 29.643583,42.773148 33.341900,40.002785 
	C34.269115,40.885750 35.241802,41.990570 36.393524,42.857552 
	C37.500858,43.691113 38.793499,44.278503 40.052532,45.212772 
	C40.052532,45.212772 40.275829,45.309761 40.584450,46.058350 
	C42.094646,47.719948 43.583656,48.454033 45.563793,45.777210 
	C46.072266,45.195034 46.580734,44.612858 47.711563,43.765133 
	C47.792450,42.880466 47.873337,41.995800 47.980503,40.335255 
M47.855953,34.409561 
	C47.855953,33.405907 47.855953,32.402256 47.855953,31.398602 
	C47.274258,31.489040 46.692558,31.579479 46.110863,31.669918 
	C46.492123,32.664852 46.873383,33.659782 47.855953,34.409561 
z"/>
<path fill="#C0281D" opacity="1.000000" stroke="none" 
	d="
M62.794083,41.978100 
	C62.857792,41.230652 62.921501,40.483204 63.195782,39.323654 
	C63.406357,38.911549 63.781773,38.713169 63.781773,38.713169 
	C63.781773,38.713169 63.975533,38.953072 64.073715,39.072281 
	C64.072121,40.121094 63.972340,41.050694 63.867352,42.331787 
	C63.862144,42.683277 63.451839,42.858845 63.191067,42.687916 
	C62.884888,42.337357 62.839485,42.157730 62.794083,41.978100 
z"/>
<path fill="#DD0C14" opacity="1.000000" stroke="none" 
	d="
M62.605820,42.141739 
	C62.839485,42.157730 62.884888,42.337357 62.991470,42.787689 
	C63.050079,43.236927 63.047516,43.415462 62.893093,43.815384 
	C62.633339,43.459637 62.525448,42.882511 62.605820,42.141739 
z"/>
<path fill="#DD0C14" opacity="1.000000" stroke="none" 
	d="
M61.474632,47.286186 
	C61.292587,46.825329 61.369015,46.131477 61.730499,45.219963 
	C61.921406,45.685928 61.827251,46.369564 61.474632,47.286186 
z"/>
<path fill="#E40B0C" opacity="1.000000" stroke="none" 
	d="
M3.531212,21.489199 
	C3.828194,28.792795 3.873240,36.219368 3.851926,44.141266 
	C3.617075,44.553883 3.448584,44.471180 3.057577,44.215977 
	C2.765402,43.523239 2.695742,43.003002 2.463287,42.101494 
	C2.300491,41.720222 2.032505,41.374508 2.032505,41.374508 
	C2.017119,40.854492 2.001734,40.334476 1.977886,39.423782 
	C2.007560,35.318256 2.045699,31.603405 2.026704,27.428448 
	C1.983685,26.491243 1.997797,26.014147 1.990011,25.179344 
	C2.273993,24.072926 2.579875,23.324215 2.860637,22.265202 
	C2.983437,21.840658 3.131356,21.726416 3.531212,21.489199 
z"/>
<path fill="#FCF3E3" opacity="1.000000" stroke="none" 
	d="
M61.931496,18.727327 
	C58.340096,15.347272 54.780319,11.557445 51.091270,7.446107 
	C51.982407,6.632087 53.589024,5.456145 53.933533,5.751642 
	C57.844772,9.106467 62.492210,12.104012 61.931496,18.727327 
z"/>
<path fill="#DA0E19" opacity="1.000000" stroke="none" 
	d="
M49.049870,5.738372 
	C48.749775,5.927925 48.454891,5.790657 48.085659,5.322754 
	C48.123245,5.080566 48.289940,5.051392 48.707382,5.061744 
	C48.958130,5.101271 49.000320,5.529172 49.049870,5.738372 
z"/>
<path fill="#EF0A0B" opacity="1.000000" stroke="none" 
	d="
M41.915886,2.579293 
	C36.342464,2.912349 30.572153,2.969496 24.398468,3.012975 
	C24.776047,2.630332 25.556997,2.261358 26.683075,1.905861 
	C30.726091,1.947748 34.423985,1.976159 38.575958,1.941477 
	C39.926365,2.020051 40.822681,2.161717 41.915886,2.579293 
z"/>
<path fill="#E90A08" opacity="1.000000" stroke="none" 
	d="
M21.319412,61.996582 
	C21.197260,61.401138 21.439514,60.573135 21.593399,60.589245 
	C28.270140,61.288246 34.939049,62.062035 42.003342,62.992020 
	C41.535252,63.480659 40.672726,63.804035 39.454628,64.098473 
	C35.351940,64.033051 31.604830,63.996563 27.393915,64.006165 
	C25.167608,63.420761 23.405104,62.789265 21.319412,61.996582 
z"/>
<path fill="#DA0E19" opacity="1.000000" stroke="none" 
	d="
M47.348686,4.831591 
	C46.317387,4.613971 45.286091,4.396352 44.394920,3.838416 
	C45.161060,3.663936 45.787075,3.829774 46.834427,4.194723 
	C47.255772,4.393835 47.348686,4.831591 47.348686,4.831591 
z"/>
<path fill="#DA0E19" opacity="1.000000" stroke="none" 
	d="
M44.064644,3.249593 
	C43.647324,3.440544 43.011642,3.423659 42.228306,3.091065 
	C42.669193,2.864156 43.257736,2.952956 44.064644,3.249593 
z"/>
<path fill="#FCFBFD" opacity="1.000000" stroke="none" 
	d="
M47.512802,4.763052 
	C47.348686,4.831591 47.255772,4.393835 47.161945,4.190751 
	C47.277527,4.119967 47.486725,4.252600 47.854485,4.482159 
	C48.013260,4.578750 47.676918,4.694513 47.512802,4.763052 
z"/>
<path fill="#E90301" opacity="1.000000" stroke="none" 
	d="
M63.841019,38.281357 
	C63.781773,38.713169 63.406357,38.911549 63.197098,38.948009 
	C62.987572,38.543262 62.987305,38.102058 62.934105,36.982174 
	C59.925648,33.826832 61.770576,31.418512 62.985142,29.001219 
	C62.985397,28.559563 62.985657,28.117908 63.269630,27.329979 
	C63.739079,26.955372 63.924816,26.927040 64.110550,26.898708 
	C64.110550,26.898708 64.103348,26.919113 64.114113,26.925629 
	C64.050003,30.571280 63.975136,34.210415 63.841019,38.281357 
z"/>
<path fill="#C0281D" opacity="1.000000" stroke="none" 
	d="
M64.159851,26.558510 
	C63.924816,26.927040 63.739079,26.955372 63.271774,26.998741 
	C63.007061,26.200819 63.023914,25.387859 63.147491,24.179012 
	C63.572525,24.594854 63.890842,25.406584 64.159851,26.558510 
z"/>
<path fill="#DD0C14" opacity="1.000000" stroke="none" 
	d="
M63.254570,23.527107 
	C62.944908,23.365488 62.633209,22.873171 62.513947,22.192070 
	C62.888439,22.400995 63.070488,22.798702 63.254570,23.527107 
z"/>
<path fill="#FCFDFD" opacity="1.000000" stroke="none" 
	d="
M2.140252,41.459888 
	C2.032505,41.374508 2.300491,41.720222 2.207824,41.796928 
	C2.115158,41.873638 2.170256,41.857231 2.161533,41.830223 
	C2.152810,41.803215 2.247999,41.545269 2.140252,41.459888 
z"/>
<path fill="#FAFBFC" opacity="1.000000" stroke="none" 
	d="
M19.144085,42.026764 
	C21.302776,39.562771 23.461470,37.098785 26.026020,34.186794 
	C25.605944,32.525681 24.780008,31.312567 23.954071,30.099453 
	C22.957983,28.838972 21.961895,27.578491 20.915627,25.590740 
	C21.023489,21.124178 23.842999,22.167837 26.049164,22.342899 
	C28.522522,24.395823 31.306393,27.829950 33.268036,27.411314 
	C35.851501,26.859974 37.788857,23.281109 40.004013,21.003944 
	C40.468716,20.370007 40.933422,19.736067 41.725563,19.360701 
	C42.366337,19.941235 42.679680,20.263195 42.993019,20.585155 
	C43.331776,20.106958 43.670528,19.628765 44.009285,19.150570 
	C44.713158,19.721111 45.417030,20.291651 46.092609,21.433838 
	C44.721764,24.353851 43.379211,26.702219 42.019264,29.024960 
	C42.001869,28.999332 42.051247,29.036974 41.680756,29.028946 
	C40.132679,30.846643 38.955090,32.672371 37.777504,34.498100 
	C39.744938,35.466072 41.712372,36.434044 43.848740,37.552235 
	C44.249355,37.896992 44.461075,38.111263 44.459358,38.714653 
	C44.517109,40.387764 44.768341,41.691483 45.122070,43.216354 
	C45.418320,43.715137 45.676804,43.904369 46.272194,44.016502 
	C46.725990,44.028759 46.907600,44.029720 47.089203,44.030678 
	C46.580734,44.612858 46.072266,45.195034 44.985809,45.580017 
	C43.030491,45.358467 41.653160,45.334114 40.275829,45.309761 
	C40.275829,45.309761 40.052532,45.212772 40.025799,44.730644 
	C39.280548,43.227547 38.670456,42.105076 37.825512,41.202450 
	C33.149612,36.207340 33.131252,36.314209 28.315252,40.915287 
	C26.869358,42.296658 24.795101,43.020309 22.688007,43.988319 
	C21.292900,43.296497 20.218493,42.661629 19.144085,42.026764 
z"/>
<path fill="#FDF1E5" opacity="1.000000" stroke="none" 
	d="
M23.008709,44.045273 
	C24.795101,43.020309 26.869358,42.296658 28.315252,40.915287 
	C33.131252,36.314209 33.149612,36.207340 37.825512,41.202450 
	C38.670456,42.105076 39.280548,43.227547 40.001892,44.611290 
	C38.793499,44.278503 37.500858,43.691113 36.393524,42.857552 
	C35.241802,41.990570 34.269115,40.885750 33.341900,40.002785 
	C29.643583,42.773148 26.176077,45.370613 22.392418,47.572071 
	C22.387081,46.132465 22.697895,45.088867 23.008709,44.045273 
z"/>
<path fill="#FDF0E4" opacity="1.000000" stroke="none" 
	d="
M39.675251,21.118307 
	C37.788857,23.281109 35.851501,26.859974 33.268036,27.411314 
	C31.306393,27.829950 28.522522,24.395823 26.050285,22.038460 
	C25.995546,20.995241 25.995028,20.589575 25.994511,20.183910 
	C28.235548,22.078068 30.476583,23.972227 32.883034,26.006191 
	C34.967125,24.467007 37.156811,22.849840 39.675251,21.118307 
z"/>
<path fill="#F50807" opacity="1.000000" stroke="none" 
	d="
M47.526371,24.013351 
	C50.034470,26.786028 47.712627,28.003288 45.898396,29.617903 
	C44.431114,30.923744 43.322136,32.632187 42.033493,34.573730 
	C42.012764,34.985416 41.920269,35.079597 41.604050,34.945652 
	C38.442703,32.477028 41.158047,30.877445 42.051247,29.036974 
	C42.051247,29.036974 42.001869,28.999332 42.334190,28.909187 
	C44.286465,27.217144 45.906418,25.615248 47.526371,24.013351 
z"/>
<path fill="#FFF5E8" opacity="1.000000" stroke="none" 
	d="
M25.721432,20.062265 
	C25.995028,20.589575 25.995546,20.995241 25.994942,21.705347 
	C23.842999,22.167837 21.023489,21.124178 20.771910,25.302353 
	C16.282848,23.014177 19.960863,21.117142 21.814543,19.182817 
	C22.851145,19.215822 23.445951,19.053139 24.040758,18.890457 
	C24.509958,19.240509 24.979156,19.590565 25.721432,20.062265 
z"/>
<path fill="#F50807" opacity="1.000000" stroke="none" 
	d="
M44.652832,38.345261 
	C44.461075,38.111263 44.249355,37.896992 43.669838,37.319237 
	C42.854759,36.317211 42.387516,35.698406 41.920269,35.079597 
	C41.920269,35.079597 42.012764,34.985416 42.059116,34.937401 
	C44.672115,36.048431 48.279579,36.084648 47.671062,40.613693 
	C46.458691,40.043175 45.555763,39.194218 44.652832,38.345261 
z"/>
<path fill="#FB0509" opacity="1.000000" stroke="none" 
	d="
M62.581383,29.015919 
	C61.770576,31.418512 59.925648,33.826832 62.933159,36.651146 
	C61.998066,36.212681 60.110558,35.312130 60.193192,34.661980 
	C60.438496,32.731964 61.459713,30.900568 62.581383,29.015919 
z"/>
<path fill="#FDEEE1" opacity="1.000000" stroke="none" 
	d="
M47.637463,23.625141 
	C45.906418,25.615248 44.286465,27.217144 42.351585,28.934814 
	C43.379211,26.702219 44.721764,24.353851 46.262398,21.656282 
	C46.889835,21.950363 47.319195,22.593645 47.637463,23.625141 
z"/>
<path fill="#FDEEE1" opacity="1.000000" stroke="none" 
	d="
M44.459358,38.714653 
	C45.555763,39.194218 46.458691,40.043175 47.657921,41.001633 
	C47.873337,41.995800 47.792450,42.880466 47.400383,43.897907 
	C46.907600,44.029720 46.725990,44.028759 46.166801,43.797409 
	C45.594414,43.293327 45.337860,43.102718 45.019569,42.995201 
	C44.768341,41.691483 44.517109,40.387764 44.459358,38.714653 
z"/>
<path fill="#FFF5E8" opacity="1.000000" stroke="none" 
	d="
M22.688007,43.988319 
	C22.697895,45.088867 22.387081,46.132465 22.037361,47.504250 
	C20.895544,45.996952 19.792635,44.161465 18.916904,42.176369 
	C20.218493,42.661629 21.292900,43.296497 22.688007,43.988319 
z"/>
<path fill="#F11012" opacity="1.000000" stroke="none" 
	d="
M23.842262,30.367908 
	C24.780008,31.312567 25.605944,32.525681 26.150669,33.874619 
	C25.156456,32.885750 24.443457,31.761057 23.842262,30.367908 
z"/>
<path fill="#F50807" opacity="1.000000" stroke="none" 
	d="
M47.555298,34.532139 
	C46.873383,33.659782 46.492123,32.664852 46.110863,31.669918 
	C46.692558,31.579479 47.274258,31.489040 47.855953,31.398602 
	C47.855953,32.402256 47.855953,33.405907 47.555298,34.532139 
z"/>
<path fill="#FFF6E8" opacity="1.000000" stroke="none" 
	d="
M40.430138,45.684055 
	C41.653160,45.334114 43.030491,45.358467 44.703346,45.670166 
	C43.583656,48.454033 42.094646,47.719948 40.430138,45.684055 
z"/>
<path fill="#FFF6E8" opacity="1.000000" stroke="none" 
	d="
M43.763138,18.801304 
	C43.670528,19.628765 43.331776,20.106958 42.993019,20.585155 
	C42.679680,20.263195 42.366337,19.941235 42.024025,19.326984 
	C42.502373,18.840475 43.009682,18.646255 43.763138,18.801304 
z"/>
<path fill="#FDF0E4" opacity="1.000000" stroke="none" 
	d="
M23.931137,18.612410 
	C23.445951,19.053139 22.851145,19.215822 22.106682,19.136271 
	C22.578520,18.707478 23.200018,18.520920 23.931137,18.612410 
z"/>
<path fill="#FDEEE1" opacity="1.000000" stroke="none" 
	d="
M41.604050,34.945652 
	C42.387516,35.698406 42.854759,36.317211 43.500908,37.169018 
	C41.712372,36.434044 39.744938,35.466072 37.777504,34.498100 
	C38.955090,32.672371 40.132679,30.846643 41.680756,29.028946 
	C41.158047,30.877445 38.442703,32.477028 41.604050,34.945652 
z"/>
<path fill="#FFF6E8" opacity="1.000000" stroke="none" 
	d="
M45.122070,43.216354 
	C45.337860,43.102718 45.594414,43.293327 45.894619,43.786118 
	C45.676804,43.904369 45.418320,43.715137 45.122070,43.216354 
z"/>
</svg>